<svg xmlns="http://www.w3.org/2000/svg" xmlns:xlink="http://www.w3.org/1999/xlink" width="1280" height="1474" viewBox="0 0 1280 1474"><defs><clipPath id="a"><rect width="1280" height="1474" transform="translate(0 1463)" fill="#fff" stroke="#707070" stroke-width="1"/></clipPath></defs><g transform="translate(0 -1463)" clip-path="url(#a)"><path d="M0-171.511s441.556,13.763,893.388,45.268S1807.33-45.492,1807.33-45.492L1629.082,1181.694s59.994-173.04-368.711-248.674c-117.421-20.716-248.664-72.266-392.165-123.966-74.146-26.713-151.438-53.427-231.828-76.006C303.77,639.627-38.133,581.521-38.133,581.521Z" transform="matrix(0.921, -0.391, 0.391, 0.921, -257.91, 2411.621)" fill="#7fbcbe" opacity="0.5"/><path d="M0-171.511s312.722,12.618,632.722,41.5S1280-55.978,1280-55.978l-1.082,665.024s-386.205-6.754-705.935-36.771S0,488.982,0,488.982Z" transform="translate(13 1634.512)" fill="#f2f6f3" opacity="0.5"/></g></svg>