<svg xmlns="http://www.w3.org/2000/svg" xmlns:xlink="http://www.w3.org/1999/xlink" width="94" height="91" viewBox="0 0 94 91"><defs><clipPath id="a"><rect width="94" height="91" transform="translate(880 46)" fill="#fff"/></clipPath></defs><g transform="translate(-880 -46)" clip-path="url(#a)"><g transform="translate(888 -54)"><g transform="matrix(0.848, 0.53, -0.53, 0.848, 492.796, -1804.799)"><path d="M10.086,3.669c14.766-7.23,31.466-2.953,50.1,5.7s23.32,15.071,24.44,28.92S81.98,58.658,64.668,64.768s-33.4,4.583-49.287-2.037S1.124,38.292,1.124,38.292-4.68,10.9,10.086,3.669Z" transform="translate(597.644 1906.028) rotate(-49)" fill="#ffd13a" opacity="0.4"/><path d="M10251.594,1967.113c15.891-7.78,33.861-3.178,53.914,6.137s25.094,16.218,26.3,31.121-2.848,21.916-21.477,28.491-35.943,4.931-53.037-2.192-15.342-26.3-15.342-26.3S10235.705,1974.893,10251.594,1967.113Z" transform="translate(-9636.623 -103.603)" fill="#f16162" opacity="0.4"/><g transform="matrix(0.848, -0.53, 0.53, 0.848, 580.585, 1908.071)"><path d="M62.716,48.224h-15.5a2.64,2.64,0,0,1-2.637-2.637V4.252a2.64,2.64,0,0,1,2.637-2.637h23.3v4.36a4.257,4.257,0,0,0,4.252,4.252h4.36V26.642a.807.807,0,1,0,1.615,0V9.419a.8.8,0,0,0,0-.081c0-.02-.005-.039-.009-.058s0-.014,0-.021c0-.023-.01-.045-.017-.067l0-.01c-.007-.022-.015-.044-.023-.065l0-.009c-.008-.02-.018-.04-.028-.059l-.006-.012c-.01-.018-.02-.035-.031-.052L80.61,8.97c-.011-.016-.023-.032-.035-.047l-.012-.016c-.017-.02-.034-.04-.053-.059L71.9.237A.782.782,0,0,0,71.84.184L71.823.171c-.015-.012-.031-.024-.047-.035L71.761.127C71.743.116,71.726.105,71.708.1L71.7.09c-.019-.01-.039-.02-.059-.028l-.009,0c-.021-.009-.043-.017-.065-.023l-.01,0c-.022-.006-.044-.012-.067-.017l-.021,0L71.408,0a.8.8,0,0,0-.081,0H47.215a4.257,4.257,0,0,0-4.252,4.252V45.587a4.257,4.257,0,0,0,4.252,4.252h15.5a.807.807,0,1,0,0-1.615Zm9.419-42.25V2.756L77.99,8.612H74.772A2.64,2.64,0,0,1,72.135,5.974Z" fill="#fff" stroke="#fff" stroke-width="1"/><path d="M297.8,328a6.835,6.835,0,1,0,6.835,6.835A6.843,6.843,0,0,0,297.8,328Zm0,12.056a5.221,5.221,0,1,1,5.221-5.221A5.227,5.227,0,0,1,297.8,340.056Z" transform="translate(-221.304 -292.693)" fill="#fff" stroke="#fff" stroke-width="1"/><path d="M264.5,287.524l-.511-.3a10.816,10.816,0,0,0,0-4.732l.511-.3a1.668,1.668,0,0,0,.611-2.279l-1.722-2.983a1.668,1.668,0,0,0-2.279-.611l-.508.293a11.125,11.125,0,0,0-4.1-2.362v-.593A1.67,1.67,0,0,0,254.836,272h-3.445a1.67,1.67,0,0,0-1.669,1.668v.593a11.126,11.126,0,0,0-4.1,2.362l-.508-.293a1.668,1.668,0,0,0-2.279.611l-1.722,2.983a1.668,1.668,0,0,0,.611,2.279l.511.3a10.816,10.816,0,0,0,0,4.732l-.511.3a1.668,1.668,0,0,0-.611,2.279l1.722,2.983a1.67,1.67,0,0,0,2.279.611l.508-.293a11.125,11.125,0,0,0,4.1,2.362v.593a1.67,1.67,0,0,0,1.669,1.669h3.445a1.67,1.67,0,0,0,1.668-1.669v-.593a11.126,11.126,0,0,0,4.1-2.362l.508.293a1.671,1.671,0,0,0,2.279-.611l1.722-2.983a1.668,1.668,0,0,0-.611-2.279Zm-2.219-5.207a9.3,9.3,0,0,1,0,5.091.807.807,0,0,0,.374.915l1.037.6h0a.054.054,0,0,1,.02.073l-1.722,2.983a.054.054,0,0,1-.074.02l-1.034-.6a.807.807,0,0,0-.98.133,9.511,9.511,0,0,1-4.412,2.541.807.807,0,0,0-.606.782v1.2a.054.054,0,0,1-.054.054h-3.445a.054.054,0,0,1-.054-.054v-1.2a.807.807,0,0,0-.606-.782,9.512,9.512,0,0,1-4.412-2.541.807.807,0,0,0-.98-.133l-1.034.6a.054.054,0,0,1-.074-.02L242.511,289a.054.054,0,0,1,.02-.074l1.037-.6a.807.807,0,0,0,.374-.915,9.3,9.3,0,0,1,0-5.091.807.807,0,0,0-.374-.915l-1.037-.6a.054.054,0,0,1-.02-.074l1.722-2.983a.054.054,0,0,1,.073-.02l1.034.6a.808.808,0,0,0,.98-.133,9.511,9.511,0,0,1,4.412-2.541.807.807,0,0,0,.606-.782v-1.2a.054.054,0,0,1,.054-.054h3.445a.054.054,0,0,1,.054.054v1.2a.807.807,0,0,0,.606.782,9.511,9.511,0,0,1,4.412,2.541.808.808,0,0,0,.98.133l1.034-.6a.054.054,0,0,1,.074.02l1.722,2.983a.052.052,0,0,1,.005.041.052.052,0,0,1-.025.033l-1.037.6A.807.807,0,0,0,262.285,282.318Z" transform="translate(-176.62 -242.721)" fill="#fff" stroke="#fff" stroke-width="1"/><path d="M91.77,129.615h1.722a.807.807,0,0,0,0-1.615H91.77a.807.807,0,0,0,0,1.615Z" transform="translate(-42.833 -114.222)" fill="#fff" stroke="#fff" stroke-width="1"/><path d="M139.77,129.615h1.722a.807.807,0,0,0,0-1.615H139.77a.807.807,0,1,0,0,1.615Z" transform="translate(-85.666 -114.222)" fill="#fff" stroke="#fff" stroke-width="1"/><path d="M196.382,128H187.77a.807.807,0,0,0,0,1.615h8.612a.807.807,0,1,0,0-1.615Z" transform="translate(-128.499 -114.222)" fill="#fff" stroke="#fff" stroke-width="1"/><path d="M147.467,168.807a.807.807,0,0,0-.807-.807H139.77a.807.807,0,1,0,0,1.615h6.889A.807.807,0,0,0,147.467,168.807Z" transform="translate(-85.666 -149.916)" fill="#fff" stroke="#fff" stroke-width="1"/><path d="M234.963,168.807a.807.807,0,0,0,.807.807H241.8a.807.807,0,1,0,0-1.615H235.77A.807.807,0,0,0,234.963,168.807Z" transform="translate(-171.332 -149.916)" fill="#fff" stroke="#fff" stroke-width="1"/><path d="M91.77,169.615h1.722a.807.807,0,1,0,0-1.615H91.77a.807.807,0,1,0,0,1.615Z" transform="translate(-42.833 -149.916)" fill="#fff" stroke="#fff" stroke-width="1"/><path d="M91.77,209.615h1.722a.807.807,0,1,0,0-1.615H91.77a.807.807,0,1,0,0,1.615Z" transform="translate(-42.833 -185.61)" fill="#fff" stroke="#fff" stroke-width="1"/><path d="M195.77,209.615h14.64a.807.807,0,1,0,0-1.615H195.77a.807.807,0,0,0,0,1.615Z" transform="translate(-135.638 -185.61)" fill="#fff" stroke="#fff" stroke-width="1"/><path d="M139.77,208a.807.807,0,1,0,0,1.615h2.583a.807.807,0,0,0,0-1.615Z" transform="translate(-85.666 -185.61)" fill="#fff" stroke="#fff" stroke-width="1"/><path d="M149.243,248H139.77a.807.807,0,1,0,0,1.615h9.473a.807.807,0,1,0,0-1.615Z" transform="translate(-85.666 -221.304)" fill="#fff" stroke="#fff" stroke-width="1"/><path d="M131.77,313.615h3.445a.807.807,0,1,0,0-1.615H131.77a.807.807,0,1,0,0,1.615Z" transform="translate(-78.527 -278.415)" fill="#fff" stroke="#fff" stroke-width="1"/><path d="M91.77,249.615h1.722a.807.807,0,1,0,0-1.615H91.77a.807.807,0,1,0,0,1.615Z" transform="translate(-42.833 -221.304)" fill="#fff" stroke="#fff" stroke-width="1"/><path d="M91.2,284.823a.807.807,0,0,0,1.142,0l1.722-1.722a.807.807,0,0,0,0-1.142l-1.722-1.722a.807.807,0,1,0-1.142,1.142l1.151,1.151L91.2,283.681A.807.807,0,0,0,91.2,284.823Z" transform="translate(-42.833 -249.86)" fill="#fff" stroke="#fff" stroke-width="1"/></g></g></g></g></svg>