<svg xmlns="http://www.w3.org/2000/svg" width="116.521" height="110.978" viewBox="0 0 116.521 110.978"><g transform="matrix(0.848, 0.53, -0.53, 0.848, 512.225, -1897.132)"><path d="M10.086,3.669c14.766-7.23,31.466-2.953,50.1,5.7s23.32,15.071,24.44,28.92S81.98,58.658,64.668,64.768s-33.4,4.583-49.287-2.037S1.124,38.292,1.124,38.292-4.68,10.9,10.086,3.669Z" transform="translate(597.644 1906.028) rotate(-49)" fill="#ffd13a" opacity="0.4"/><path d="M10251.594,1967.113c15.891-7.78,33.861-3.178,53.914,6.137s25.094,16.218,26.3,31.121-2.848,21.916-21.477,28.491-35.943,4.931-53.037-2.192-15.342-26.3-15.342-26.3S10235.705,1974.893,10251.594,1967.113Z" transform="translate(-9636.623 -103.603)" fill="#f16162" opacity="0.4"/></g></svg>