<svg xmlns="http://www.w3.org/2000/svg" xmlns:xlink="http://www.w3.org/1999/xlink" width="94" height="91" viewBox="0 0 94 91"><defs><clipPath id="a"><rect width="94" height="91" transform="translate(880 46)" fill="#fff"/></clipPath></defs><g transform="translate(-880 -46)" clip-path="url(#a)"><g transform="translate(888 -54)"><g transform="matrix(0.848, 0.53, -0.53, 0.848, 492.796, -1804.799)"><path d="M10.086,3.669c14.766-7.23,31.466-2.953,50.1,5.7s23.32,15.071,24.44,28.92S81.98,58.658,64.668,64.768s-33.4,4.583-49.287-2.037S1.124,38.292,1.124,38.292-4.68,10.9,10.086,3.669Z" transform="translate(597.644 1906.028) rotate(-49)" fill="#ffd13a" opacity="0.4"/><path d="M10251.594,1967.113c15.891-7.78,33.861-3.178,53.914,6.137s25.094,16.218,26.3,31.121-2.848,21.916-21.477,28.491-35.943,4.931-53.037-2.192-15.342-26.3-15.342-26.3S10235.705,1974.893,10251.594,1967.113Z" transform="translate(-9636.623 -103.603)" fill="#f16162" opacity="0.4"/><g transform="matrix(0.848, -0.53, 0.53, 0.848, 582.594, 1845.143)"><path d="M55.408,56H4.642A4.647,4.647,0,0,0,0,60.642v37.6a4.647,4.647,0,0,0,4.642,4.642H55.408a4.647,4.647,0,0,0,4.642-4.642v-37.6A4.647,4.647,0,0,0,55.408,56ZM4.642,57.763H55.408a2.882,2.882,0,0,1,2.879,2.879v2.879H1.763V60.642A2.882,2.882,0,0,1,4.642,57.763Zm50.766,43.363H4.642a2.882,2.882,0,0,1-2.879-2.879V65.284H58.287V98.246A2.882,2.882,0,0,1,55.408,101.125Z" transform="translate(0 0)" fill="#fff" stroke="#fff" stroke-width="1"/><path d="M32.881,89.763a.883.883,0,1,0-.623-.259A.885.885,0,0,0,32.881,89.763Z" transform="translate(-28.24 -28.24)" fill="#fff" stroke="#fff" stroke-width="1"/><path d="M56.881,89.763a.883.883,0,1,0-.623-.259A.885.885,0,0,0,56.881,89.763Z" transform="translate(-49.419 -28.24)" fill="#fff" stroke="#fff" stroke-width="1"/><path d="M80.881,89.763a.883.883,0,1,0-.623-.259A.885.885,0,0,0,80.881,89.763Z" transform="translate(-70.599 -28.24)" fill="#fff" stroke="#fff" stroke-width="1"/><path d="M231.727,192.04a.882.882,0,0,0-1.107.573L224.04,213.3a.881.881,0,1,0,1.68.534l6.581-20.682A.881.881,0,0,0,231.727,192.04Z" transform="translate(-197.675 -120.017)" fill="#fff" stroke="#fff" stroke-width="1"/><path d="M313.5,208.258a.881.881,0,1,0-1.246,1.246l7.838,7.838-7.838,7.838a.881.881,0,1,0,1.246,1.246l8.461-8.461a.881.881,0,0,0,0-1.246Z" transform="translate(-275.336 -134.138)" fill="#fff" stroke="#fff" stroke-width="1"/><path d="M129.966,208.258a.881.881,0,0,0-1.246,0l-8.461,8.461a.881.881,0,0,0,0,1.246l8.461,8.461a.881.881,0,1,0,1.246-1.246l-7.838-7.838,7.838-7.838A.881.881,0,0,0,129.966,208.258Z" transform="translate(-105.899 -134.138)" fill="#fff" stroke="#fff" stroke-width="1"/><path d="M112.881,89.763h35.724a.881.881,0,0,0,0-1.763H112.881a.881.881,0,0,0,0,1.763Z" transform="translate(-98.839 -28.24)" fill="#fff" stroke="#fff" stroke-width="1"/><path d="M448.881,89.763h1.88a.881.881,0,0,0,0-1.763h-1.88a.881.881,0,0,0,0,1.763Z" transform="translate(-395.354 -28.24)" fill="#fff" stroke="#fff" stroke-width="1"/></g></g></g></g></svg>