<svg xmlns="http://www.w3.org/2000/svg" width="447.001" height="388.289" viewBox="0 0 447.001 388.289"><path d="M48.5,171.289c-26.469,0-48.5,21.785-48.5,48.25v121c0,26.469,22.031,47.75,48.5,47.75h351a47.414,47.414,0,0,0,47.5-47.75v-121c0-26.465-21.031-48.25-47.5-48.25H384.848L256.012,50.75A34.994,34.994,0,0,0,259.5,35.477a35.5,35.5,0,1,0-71,.047,34.747,34.747,0,0,0,3.488,15.219L63.152,171.289Zm382.5,169a32,32,0,0,1-32,32H48a32,32,0,0,1-32-32v-121a32,32,0,0,1,32-32H399a32,32,0,0,1,32,32ZM224,16.039a19.5,19.5,0,1,1-19.5,19.5A19.5,19.5,0,0,1,224,16.039ZM202.027,63.27a35.115,35.115,0,0,0,43.945-.031L361.442,171.289H86.559Zm0,0" fill="#323742"/><path d="M155.8,320.6c13.1,0,24.2-6.4,24.2-23.6V251.692c0-3.2-3.8-4.4-7.2-4.4H155.3c-3.3,0-4.7,3.2-4.7,6.4,0,3.7,1.7,6.6,4.7,6.6H164V297c0,6.8-3.3,10-9.1,10-8,0-8.5-6.1-8.8-10-.3-3.7-3.7-4.7-7.7-4.7-5.4,0-7.8,1.4-7.8,7.4,0,13.3,10.9,20.9,25.2,20.9Zm0,0" fill="#323742"/><path d="M223.449,320.6c13.8,0,24.551-6.4,24.551-23.6V270.5c0-17.2-10.75-23.6-24.551-23.6S199,253.3,199,270.5V297C199,314.2,209.648,320.6,223.449,320.6ZM215,270.5c0-6.9,3.352-10,8.949-10s9.051,3.1,9.051,10V297c0,6.9-3.449,10-9.051,10S215,303.9,215,297Zm0,0" fill="#323742"/><path d="M275.2,320.289h22.2c11.3,0,19.6-5.988,19.6-21.793v-2.1c0-10-3.949-13.7-10.051-16,5.3-2.3,8.625-7.4,8.625-15.5,0-14.2-9.875-17.6-19.875-17.6H275.2c-3.4,0-7.2,1.2-7.2,4.4v63.6c0,2.5,3,4.988,7.2,4.988Zm8.8-60h10.4c3.8,0,5.7,3.551,5.7,7.051,0,3.4-1.9,6.949-5.7,6.949H284Zm0,26h9.9c5,0,8.1,2.508,8.1,9.309v1.6c0,6.4-3.1,9.09-8.1,9.09H284Zm0,0" fill="#323742"/></svg>