<svg xmlns="http://www.w3.org/2000/svg" width="30" height="28.668" viewBox="0 0 30 28.668"><path d="M0,8.33A3.118,3.118,0,0,1,1.014,5.941,3.718,3.718,0,0,1,3.649,5a3.607,3.607,0,0,1,2.577.927,3.266,3.266,0,0,1,1.014,2.49,3.049,3.049,0,0,1-.985,2.317,3.725,3.725,0,0,1-2.664.956H3.562a3.544,3.544,0,0,1-2.577-.956A3.209,3.209,0,0,1,0,8.33ZM.376,33.668V14.324H6.805V33.668Zm9.99,0H16.8v-10.8a3.77,3.77,0,0,1,1.462-3.229,3.146,3.146,0,0,1,2.07-.681q3.243,0,3.243,4.373V33.668H30V22.577q0-4.286-2.027-6.5a6.915,6.915,0,0,0-5.357-2.215,6.571,6.571,0,0,0-5.82,3.214v.058h-.029l.029-.058V14.324H10.367q.058.927.058,5.763T10.367,33.668Z" transform="translate(0 -5)" fill="#7fbcbe"/></svg>