<svg xmlns="http://www.w3.org/2000/svg" width="72.228" height="19.773" viewBox="0 0 72.228 19.773"><g transform="translate(-30.806 -33.227)"><g transform="translate(-126 -226)"><g transform="translate(176.513 259.227) rotate(90)"><path d="M11.355,19.773,3.311,19,0,1.949,13.181,0Z" transform="translate(0 19.707) rotate(-90)" fill="#ffd13a"/><path d="M1.949,13.181h0L0,0,19.772,1.826,19,9.871ZM4.719,1.955A2.022,2.022,0,1,0,6.742,3.978,2.025,2.025,0,0,0,4.719,1.955Z" fill="#f16162"/></g><path d="M11.111-41.306a.518.518,0,0,1,.459.269,1.39,1.39,0,0,1,.168.739,2.061,2.061,0,0,1-.426,1.389,9.532,9.532,0,0,1-2.106,1.95,4.617,4.617,0,0,1-2.622.762q-4.571,0-4.571-6.431,0-.986.067-1.994H1.207A1.257,1.257,0,0,1,.3-44.869a1.107,1.107,0,0,1-.235-.784q0-1.255,1.008-1.255H2.35a21.808,21.808,0,0,1,1.165-4.5,10.162,10.162,0,0,1,1.893-3.249,3.228,3.228,0,0,1,2.386-1.21,1.676,1.676,0,0,1,1.479.829,3.757,3.757,0,0,1,.538,2.084A7.851,7.851,0,0,1,6.9-46.908h2.51a.709.709,0,0,1,.515.157.825.825,0,0,1,.157.583q0,1.546-2.532,1.546H4.815Q4.77-43.5,4.77-42.875A6.972,6.972,0,0,0,5.319-39.6a1.864,1.864,0,0,0,1.737.941,2.675,2.675,0,0,0,1.7-.583,13.6,13.6,0,0,0,1.748-1.748A.787.787,0,0,1,11.111-41.306ZM7.19-53.721q-.336,0-.751.84a11.956,11.956,0,0,0-.784,2.331,31.241,31.241,0,0,0-.616,3.305A7.654,7.654,0,0,0,7.022-49.81,6.223,6.223,0,0,0,7.683-52.4Q7.683-53.721,7.19-53.721ZM12.68-36.2a2.725,2.725,0,0,1-2.218-1.008,4.03,4.03,0,0,1-.829-2.644,7.285,7.285,0,0,1,.829-3.395,7.077,7.077,0,0,1,2.207-2.577,4.978,4.978,0,0,1,2.924-.975.873.873,0,0,1,.661.19,1.61,1.61,0,0,1,.28.683,5.261,5.261,0,0,1,.986-.09q1.1,0,1.1.784a16.813,16.813,0,0,1-.336,2.241,21.75,21.75,0,0,0-.515,3.585.813.813,0,0,0,.168.538.542.542,0,0,0,.437.2,1.7,1.7,0,0,0,1.031-.549,19.167,19.167,0,0,0,1.636-1.782.787.787,0,0,1,.605-.314.518.518,0,0,1,.459.269,1.39,1.39,0,0,1,.168.739,2.061,2.061,0,0,1-.426,1.389,11.289,11.289,0,0,1-1.95,1.927A3.323,3.323,0,0,1,17.9-36.2a2.093,2.093,0,0,1-1.356-.5,3.073,3.073,0,0,1-.93-1.378A3.406,3.406,0,0,1,12.68-36.2Zm.807-2.263a1.23,1.23,0,0,0,.941-.583,3.778,3.778,0,0,0,.65-1.546l.829-4.123a2.714,2.714,0,0,0-1.737.706A4.755,4.755,0,0,0,12.9-42.2a6.072,6.072,0,0,0-.471,2.375,1.587,1.587,0,0,0,.28,1.031A.952.952,0,0,0,13.487-38.46ZM30.45-41.306a.518.518,0,0,1,.459.269,1.39,1.39,0,0,1,.168.739,2.061,2.061,0,0,1-.426,1.389,8.186,8.186,0,0,1-2.342,1.86,6.5,6.5,0,0,1-3.238.852,4.989,4.989,0,0,1-3.653-1.277,4.678,4.678,0,0,1-1.3-3.5,6.485,6.485,0,0,1,.65-2.88,5.321,5.321,0,0,1,1.8-2.118,4.536,4.536,0,0,1,2.611-.784,2.84,2.84,0,0,1,2.084.773,2.808,2.808,0,0,1,.784,2.1,3.623,3.623,0,0,1-1.109,2.655,8.021,8.021,0,0,1-3.753,1.759,2.2,2.2,0,0,0,2.129,1.031,4.9,4.9,0,0,0,2.3-.706,7.586,7.586,0,0,0,2.23-1.849A.787.787,0,0,1,30.45-41.306ZM24.8-44.556a1.642,1.642,0,0,0-1.4.964,4.491,4.491,0,0,0-.571,2.331v.045a5.092,5.092,0,0,0,2.084-.941,1.849,1.849,0,0,0,.762-1.457.974.974,0,0,0-.235-.683A.822.822,0,0,0,24.8-44.556Zm15.663,1.434a.786.786,0,0,1,.224-.022.621.621,0,0,1,.515.224.942.942,0,0,1,.179.605,1.9,1.9,0,0,1-.269,1.087,1.522,1.522,0,0,1-.807.571,7.04,7.04,0,0,1-2.2.336,6.29,6.29,0,0,1-1.86-.269q-.65,1.053-1.434,2.174a7.618,7.618,0,0,1-1.546,1.748,2.458,2.458,0,0,1-1.479.471,1.7,1.7,0,0,1-1.445-.717,4.548,4.548,0,0,1-.661-2.263q-.269-3.137-.269-5.49v-.784a1.276,1.276,0,0,1,.4-1.031,1.867,1.867,0,0,1,1.143-.291,1.241,1.241,0,0,1,.863.258,1.129,1.129,0,0,1,.28.863q0,2.577.314,6.7,1.344-1.994,2.017-3.182a3.326,3.326,0,0,1-.336-1.546,3.448,3.448,0,0,1,.336-1.479,3.1,3.1,0,0,1,.919-1.165,2.111,2.111,0,0,1,1.322-.448,1.335,1.335,0,0,1,1.053.459,1.962,1.962,0,0,1,.4,1.333,6.149,6.149,0,0,1-.538,2.308,15.956,15.956,0,0,0,2.263-.336ZM43.222-36.2a3.786,3.786,0,0,1-2.252-.661,4.105,4.105,0,0,1-1.4-1.737A5.7,5.7,0,0,1,39.1-40.9a6.945,6.945,0,0,1,.639-3.036,5.156,5.156,0,0,1,1.737-2.084,4.267,4.267,0,0,1,2.465-.751,3.837,3.837,0,0,1,2.263.661,4.075,4.075,0,0,1,1.412,1.737,5.7,5.7,0,0,1,.471,2.308,6.844,6.844,0,0,1-.65,3.036,5.2,5.2,0,0,1-1.759,2.084A4.283,4.283,0,0,1,43.222-36.2Zm.246-2.42a1.518,1.518,0,0,0,1.288-.829,4.547,4.547,0,0,0,.527-2.42,3.193,3.193,0,0,0-.448-1.86,1.3,1.3,0,0,0-1.076-.627,1.551,1.551,0,0,0-1.333.818A4.538,4.538,0,0,0,41.9-41.1a3.177,3.177,0,0,0,.448,1.882A1.347,1.347,0,0,0,43.469-38.617Z" transform="translate(180.949 315.099)" fill="#7fbcbe"/></g></g></svg>