<svg xmlns="http://www.w3.org/2000/svg" xmlns:xlink="http://www.w3.org/1999/xlink" width="94" height="91" viewBox="0 0 94 91"><defs><clipPath id="a"><rect width="94" height="91" transform="translate(880 46)" fill="#fff"/></clipPath></defs><g transform="translate(-880 -46)" clip-path="url(#a)"><g transform="translate(888 -54)"><g transform="matrix(0.848, 0.53, -0.53, 0.848, 492.796, -1804.799)"><path d="M10.086,3.669c14.766-7.23,31.466-2.953,50.1,5.7s23.32,15.071,24.44,28.92S81.98,58.658,64.668,64.768s-33.4,4.583-49.287-2.037S1.124,38.292,1.124,38.292-4.68,10.9,10.086,3.669Z" transform="translate(597.644 1906.028) rotate(-49)" fill="#ffd13a" opacity="0.4"/><path d="M10251.594,1967.113c15.891-7.78,33.861-3.178,53.914,6.137s25.094,16.218,26.3,31.121-2.848,21.916-21.477,28.491-35.943,4.931-53.037-2.192-15.342-26.3-15.342-26.3S10235.705,1974.893,10251.594,1967.113Z" transform="translate(-9636.623 -103.603)" fill="#f16162" opacity="0.4"/></g><path d="M65.392,132H4.3A4.3,4.3,0,0,0,0,136.3v13.092a4.3,4.3,0,0,0,4.3,4.3H42.481a1.023,1.023,0,1,0,0-2.046H4.3a2.253,2.253,0,0,1-2.25-2.25V136.3a2.253,2.253,0,0,1,2.25-2.25h61.1a2.253,2.253,0,0,1,2.25,2.25v9.819a1.023,1.023,0,1,0,2.046,0V136.3A4.3,4.3,0,0,0,65.392,132Z" fill="#fff" stroke="#fff" stroke-width="1"/><path d="M355.5,189.987V188.66a8.66,8.66,0,0,0-17.32,0v1.327A3.21,3.21,0,0,0,336,193.024v10.91a3.208,3.208,0,0,0,3.2,3.2h15.274a3.208,3.208,0,0,0,3.2-3.2v-10.91A3.21,3.21,0,0,0,355.5,189.987Zm-8.66-7.942a6.622,6.622,0,0,1,6.614,6.614v1.159H340.228V188.66A6.622,6.622,0,0,1,346.842,182.046Zm8.8,21.888a1.161,1.161,0,0,1-1.159,1.159H339.2a1.16,1.16,0,0,1-1.159-1.159v-10.91a1.16,1.16,0,0,1,1.159-1.159h15.274a1.161,1.161,0,0,1,1.159,1.159Z" transform="translate(-290.178 -41.454)" fill="#fff" stroke="#fff" stroke-width="1"/><path d="M61.753,174.693a1.023,1.023,0,0,0-1.4-.374l-2.245,1.3v-2.592a1.023,1.023,0,1,0-2.046,0v2.592l-2.245-1.3a1.023,1.023,0,0,0-1.023,1.772l2.245,1.3-2.245,1.3a1.023,1.023,0,1,0,1.023,1.772l2.245-1.3v2.592a1.023,1.023,0,1,0,2.046,0v-2.592l2.245,1.3a1.023,1.023,0,0,0,1.023-1.772l-2.245-1.3,2.245-1.3A1.023,1.023,0,0,0,61.753,174.693Z" transform="translate(-45.155 -34.545)" fill="#fff" stroke="#fff" stroke-width="1"/><path d="M157.753,174.693a1.023,1.023,0,0,0-1.4-.374l-2.245,1.3v-2.592a1.023,1.023,0,1,0-2.046,0v2.592l-2.245-1.3a1.023,1.023,0,1,0-1.023,1.772l2.245,1.3-2.245,1.3a1.023,1.023,0,1,0,1.023,1.772l2.245-1.3v2.592a1.023,1.023,0,0,0,2.046,0v-2.592l2.245,1.3a1.023,1.023,0,0,0,1.023-1.772l-2.245-1.3,2.245-1.3A1.023,1.023,0,0,0,157.753,174.693Z" transform="translate(-128.063 -34.545)" fill="#fff" stroke="#fff" stroke-width="1"/><path d="M253.753,174.693a1.023,1.023,0,0,0-1.4-.374l-2.245,1.3v-2.592a1.023,1.023,0,1,0-2.046,0v2.592l-2.245-1.3a1.023,1.023,0,1,0-1.023,1.772l2.245,1.3-2.245,1.3a1.023,1.023,0,1,0,1.023,1.772l2.245-1.3v2.592a1.023,1.023,0,0,0,2.046,0v-2.592l2.245,1.3a1.023,1.023,0,0,0,1.023-1.772l-2.245-1.3,2.245-1.3A1.023,1.023,0,0,0,253.753,174.693Z" transform="translate(-210.971 -34.545)" fill="#fff" stroke="#fff" stroke-width="1"/><path d="M395.2,284a3.2,3.2,0,0,0-1.023,6.241v1.327a1.023,1.023,0,1,0,2.046,0v-1.327A3.2,3.2,0,0,0,395.2,284Zm0,4.364a1.159,1.159,0,1,1,1.159-1.159A1.16,1.16,0,0,1,395.2,288.364Z" transform="translate(-338.541 -131.271)" fill="#fff" stroke="#fff" stroke-width="1"/></g></g></svg>