<svg xmlns="http://www.w3.org/2000/svg" xmlns:xlink="http://www.w3.org/1999/xlink" width="94" height="90" viewBox="0 0 94 90"><defs><clipPath id="a"><rect width="94" height="90" transform="translate(1041 54)" fill="none" stroke="#707070" stroke-width="1"/></clipPath></defs><g transform="translate(-1041 -54)" clip-path="url(#a)"><g transform="matrix(0.848, 0.53, -0.53, 0.848, 1541.796, -1851.799)"><path d="M10.086,3.669c14.766-7.23,31.466-2.953,50.1,5.7s23.32,15.071,24.44,28.92S81.98,58.658,64.668,64.768s-33.4,4.583-49.287-2.037S1.124,38.292,1.124,38.292-4.68,10.9,10.086,3.669Z" transform="translate(597.644 1906.028) rotate(-49)" fill="#ffd13a" opacity="0.4"/><path d="M10251.594,1967.113c15.891-7.78,33.861-3.178,53.914,6.137s25.094,16.218,26.3,31.121-2.848,21.916-21.477,28.491-35.943,4.931-53.037-2.192-15.342-26.3-15.342-26.3S10235.705,1974.893,10251.594,1967.113Z" transform="translate(-9636.623 -103.603)" fill="#f16162" opacity="0.4"/><g transform="matrix(0.848, -0.53, 0.53, 0.848, 588.187, 1839.103)"><g transform="translate(2 67.225)"><path d="M200.366,65.629l-1.353-.371a.609.609,0,0,0-.512.055.709.709,0,0,0-.338.425L190.025,93.9a.653.653,0,0,0,.055.534.708.708,0,0,0,.425.338l1.353.371a.608.608,0,0,0,.513-.054.71.71,0,0,0,.338-.425l8.138-28.16a.654.654,0,0,0-.055-.535A.708.708,0,0,0,200.366,65.629Z" transform="translate(-175.478 -65.225)" fill="#fff"/><path d="M12.7,120.576a.69.69,0,0,0-.218-.5l-1.091-1.091a.686.686,0,0,0-1,0L.218,129.147a.686.686,0,0,0,0,1l10.166,10.164a.686.686,0,0,0,1,0l1.091-1.09a.686.686,0,0,0,0-1l-8.574-8.572,8.574-8.572A.689.689,0,0,0,12.7,120.576Z" transform="translate(0 -114.674)" fill="#fff"/><path d="M368.79,129.144,358.624,118.98a.686.686,0,0,0-1,0l-1.09,1.091a.687.687,0,0,0,0,1l8.574,8.572-8.574,8.572a.687.687,0,0,0,0,1l1.09,1.09a.686.686,0,0,0,1,0l10.166-10.164a.687.687,0,0,0,0-1Z" transform="translate(-329.092 -114.671)" fill="#fff"/></g></g></g></g></svg>