<svg xmlns="http://www.w3.org/2000/svg" xmlns:xlink="http://www.w3.org/1999/xlink" width="93" height="90" viewBox="0 0 93 90"><defs><clipPath id="a"><rect width="93" height="90" transform="translate(1064 206)" fill="none" stroke="#707070" stroke-width="1"/></clipPath></defs><g transform="translate(-1064 -206)" clip-path="url(#a)"><g transform="translate(803 -897)"><g transform="matrix(0.848, 0.53, -0.53, 0.848, 760.796, -802.799)"><path d="M10.086,3.669c14.766-7.23,31.466-2.953,50.1,5.7s23.32,15.071,24.44,28.92S81.98,58.658,64.668,64.768s-33.4,4.583-49.287-2.037S1.124,38.292,1.124,38.292-4.68,10.9,10.086,3.669Z" transform="translate(597.644 1906.028) rotate(-49)" fill="#ffd13a" opacity="0.4"/><path d="M10251.594,1967.113c15.891-7.78,33.861-3.178,53.914,6.137s25.094,16.218,26.3,31.121-2.848,21.916-21.477,28.491-35.943,4.931-53.037-2.192-15.342-26.3-15.342-26.3S10235.705,1974.893,10251.594,1967.113Z" transform="translate(-9636.623 -103.603)" fill="#f16162" opacity="0.4"/></g><g transform="translate(289.557 1131.521)"><g transform="translate(0 17.367)"><g transform="translate(0)"><path d="M36.48,237.182a3.308,3.308,0,0,0-4.555.275l-3.243,3.481a3.316,3.316,0,0,0-3.161-2.328H19.734c-.439,0-.586-.168-1.349-.755a7.739,7.739,0,0,0-10.175.024l-2.127,1.872a3.3,3.3,0,0,0-3.034-.038L.61,240.932a1.1,1.1,0,0,0-.494,1.48l6.619,13.238a1.1,1.1,0,0,0,1.48.493l2.44-1.22a3.307,3.307,0,0,0,1.828-3.076H25.521a7.759,7.759,0,0,0,6.178-3.089l5.3-7.062A3.3,3.3,0,0,0,36.48,237.182ZM9.669,252.951l-1.453.727L2.583,242.413l1.453-.727a1.1,1.1,0,0,1,1.48.494l4.646,9.292A1.1,1.1,0,0,1,9.669,252.951ZM35.23,240.373l-5.3,7.062a5.542,5.542,0,0,1-4.413,2.206H11.714L7.58,241.373l2.088-1.838a5.53,5.53,0,0,1,7.288,0,3.9,3.9,0,0,0,2.778,1.281h5.787a1.1,1.1,0,1,1,0,2.206H19.886a1.1,1.1,0,0,0,0,2.206H26.26a3.319,3.319,0,0,0,2.422-1.054l4.857-5.214a1.1,1.1,0,0,1,1.691,1.412Z" transform="translate(0 -235.959)" fill="#fff"/></g></g><g transform="translate(13.312 0.013)"><g transform="translate(0 0)"><path d="M190.878,7.541A4.395,4.395,0,0,0,192.1,4.5,4.473,4.473,0,0,0,187.687.013,4.546,4.546,0,0,0,183.2,4.5a4.331,4.331,0,0,0,1.261,3.051,6.73,6.73,0,0,0-3.468,5.848v1.1a1.1,1.1,0,0,0,1.1,1.1H193.2a1.1,1.1,0,0,0,1.1-1.1V13.4A6.725,6.725,0,0,0,190.878,7.541Zm-3.192-5.322a2.274,2.274,0,0,1,2.206,2.28,2.209,2.209,0,0,1-2.206,2.206,2.274,2.274,0,0,1-2.28-2.206A2.34,2.34,0,0,1,187.687,2.219ZM183.2,13.4a4.546,4.546,0,0,1,4.486-4.486A4.455,4.455,0,0,1,192.1,13.4Z" transform="translate(-180.994 -0.013)" fill="#fff"/></g></g></g></g></g></svg>