<svg xmlns="http://www.w3.org/2000/svg" width="447.001" height="388.289" viewBox="0 0 447.001 388.289"><g transform="translate(0 0)"><path d="M48.5,171.289c-26.469,0-48.5,21.785-48.5,48.25v121c0,26.469,22.031,47.75,48.5,47.75h351a47.414,47.414,0,0,0,47.5-47.75v-121c0-26.465-21.031-48.25-47.5-48.25H384.848L256.012,50.75A34.994,34.994,0,0,0,259.5,35.477a35.5,35.5,0,1,0-71,.047,34.747,34.747,0,0,0,3.488,15.219L63.152,171.289Zm382.5,169a32,32,0,0,1-32,32H48a32,32,0,0,1-32-32v-121a32,32,0,0,1,32-32H399a32,32,0,0,1,32,32ZM224,16.039a19.5,19.5,0,1,1-19.5,19.5A19.5,19.5,0,0,1,224,16.039ZM202.027,63.27a35.115,35.115,0,0,0,43.945-.031L361.442,171.289H86.559Zm0,0" fill="#323742"/><path d="M77.449,320.6C91.25,320.6,102,314.2,102,297V270.5c0-17.2-10.75-23.6-24.551-23.6S53,253.3,53,270.5V297C53,314.2,63.648,320.6,77.449,320.6ZM69,270.5c0-6.9,3.348-10,8.949-10S87,263.6,87,270.5V297c0,6.9-3.449,10-9.051,10S69,303.9,69,297Zm0,0" fill="#323742"/><path d="M130,320c3.9,0,8-1.6,8-4.8v-25.91h14.9c3.3,0,4.7-3.2,4.7-5.9,0-3.2-1.7-6.1-4.7-6.1H138v-17h25.7c3,0,4.7-2.9,4.7-6.6,0-3.2-1.4-6.4-4.7-6.4H129c-3.4,0-7,1.2-7,4.4v63.5c0,3.207,4.1,4.809,8,4.809Zm0,0" fill="#323742"/><path d="M191.5,320c3.9,0,7.5-1.6,7.5-4.8v-25.91h15.4c3.3,0,4.7-3.2,4.7-5.9,0-3.2-1.7-6.1-4.7-6.1H199v-17h26.2c3,0,4.7-2.9,4.7-6.6,0-3.2-1.4-6.4-4.7-6.4H190.5c-3.4,0-6.5,1.2-6.5,4.4v63.5c0,3.207,3.6,4.809,7.5,4.809Zm0,0" fill="#323742"/><path d="M253,320c3.9,0,8-1.6,8-4.8V251.6c0-3.3-4.1-4.7-8-4.7s-8,1.4-8,4.7v63.6C245,318.4,249.1,320,253,320Zm0,0" fill="#323742"/><path d="M304.9,320.6c14.3,0,25.051-7.6,25.051-20.9,0-6-2.523-7.4-7.926-7.4-4,0-7.41,1-7.711,4.7-.3,3.9-1.008,10-9.008,10-5.8,0-9.3-3.2-9.3-10V270.5c0-6.8,3.5-10,9.2-10,8.5,0,8.9,6.4,9,9,.2,3.6,3.652,4.7,7.852,4.7,5.3,0,7.824-1.4,7.824-7.4,0-12.7-10.687-19.9-24.988-19.9-13.1,0-23.887,6.4-23.887,23.6V297c0,17.2,10.8,23.6,23.9,23.6Zm0,0" fill="#323742"/><path d="M354.6,320.289h35.6c3.3,0,4.7-3.7,4.7-6.9,0-3.7-1.7-7.1-4.7-7.1H363v-17h15.4c3.3,0,4.7-3.2,4.7-5.9,0-3.2-1.7-6.1-4.7-6.1H363v-17h27.2c3,0,4.7-2.9,4.7-6.6,0-3.2-1.4-6.4-4.7-6.4H354.6c-3.4,0-6.6,1.2-6.6,4.4v63.5C348,318.4,351.2,320.289,354.6,320.289Zm0,0" fill="#323742"/></g></svg>