<svg xmlns="http://www.w3.org/2000/svg" xmlns:xlink="http://www.w3.org/1999/xlink" width="93" height="90" viewBox="0 0 93 90"><defs><clipPath id="a"><rect width="93" height="90" transform="translate(1189 116)" fill="none" stroke="#707070" stroke-width="1"/></clipPath></defs><g transform="translate(-1189 -116)" clip-path="url(#a)"><g transform="translate(927 -985)"><g transform="matrix(0.848, 0.53, -0.53, 0.848, 760.796, -802.799)"><path d="M10.086,3.669c14.766-7.23,31.466-2.953,50.1,5.7s23.32,15.071,24.44,28.92S81.98,58.658,64.668,64.768s-33.4,4.583-49.287-2.037S1.124,38.292,1.124,38.292-4.68,10.9,10.086,3.669Z" transform="translate(597.644 1906.028) rotate(-49)" fill="#ffd13a" opacity="0.4"/><path d="M10251.594,1967.113c15.891-7.78,33.861-3.178,53.914,6.137s25.094,16.218,26.3,31.121-2.848,21.916-21.477,28.491-35.943,4.931-53.037-2.192-15.342-26.3-15.342-26.3S10235.705,1974.893,10251.594,1967.113Z" transform="translate(-9636.623 -103.603)" fill="#f16162" opacity="0.4"/></g><g transform="translate(289 1131.226)"><g transform="translate(0 1.774)"><path d="M11.355,22.232v6.083a2.433,2.433,0,1,0,4.866,0V22.232a2.433,2.433,0,1,0-4.866,0Z" transform="translate(-2.029 -4.994)" fill="#fff"/><path d="M18.763,19.268v8.517a2.434,2.434,0,1,0,4.867,0V19.268a2.434,2.434,0,1,0-4.867,0Z" transform="translate(-3.352 -4.465)" fill="#fff"/><path d="M26.169,16.3V27.255a2.434,2.434,0,0,0,4.868,0V16.3a2.434,2.434,0,0,0-4.868,0Z" transform="translate(-4.675 -3.935)" fill="#fff"/><path d="M38.526,16.841a.811.811,0,0,0-.733-.467H35.386A17.831,17.831,0,1,0,33.3,28.545a1.622,1.622,0,1,0-2.808-1.624,14.617,14.617,0,1,1,1.576-10.547H29.681a.811.811,0,0,0-.623,1.331l4.056,4.867a.813.813,0,0,0,1.246,0L38.415,17.7A.809.809,0,0,0,38.526,16.841Z" transform="translate(0 -1.774)" fill="#fff"/></g></g></g></g></svg>