<svg xmlns="http://www.w3.org/2000/svg" width="17.436" height="30.323" viewBox="0 0 17.436 30.323"><g transform="translate(6.918)"><path d="M10.518,3.191A3.191,3.191,0,0,0,7.326,0H-3.726A3.191,3.191,0,0,0-6.918,3.191v23.94a3.191,3.191,0,0,0,3.192,3.191H7.326a3.191,3.191,0,0,0,3.191-3.191ZM-5.4,5.534H9V23.2H-5.4Zm1.66-4.018H7.342A1.68,1.68,0,0,1,9,3.21v.808H-5.4V3.21a1.68,1.68,0,0,1,1.66-1.694ZM7.342,28.807H-3.742A1.649,1.649,0,0,1-5.4,27.169V24.713H9V27.15a1.649,1.649,0,0,1-1.641,1.657Zm0,0" fill="#323742"/><path d="M103.6,428.75h-2.967a.758.758,0,0,0,0,1.516H103.6a.758.758,0,0,0,0-1.516Zm0,0" transform="translate(-100.313 -402.748)" fill="#323742"/></g></svg>