<svg xmlns="http://www.w3.org/2000/svg" width="30.5" height="24.874" viewBox="0 0 30.5 24.874"><g transform="translate(-81.75 -378.75)"><path d="M20.045.005V0h1.407l.514.1A5.5,5.5,0,0,1,22.9.365a6.638,6.638,0,0,1,.812.379,7.717,7.717,0,0,1,.711.441,4.379,4.379,0,0,1,.568.471.788.788,0,0,0,.776.13A10.384,10.384,0,0,0,26.9,1.447q.609-.216,1.2-.487t.725-.344l.135-.081.005-.008L29,.514,29.026.5l.027-.014L29.08.473l.005-.008L29.094.46,29.1.454l.005-.008.027-.008.027-.005-.005.041-.008.041-.014.041L29.121.6l-.014.027-.014.027L29.08.69A.942.942,0,0,0,29.053.8a4.538,4.538,0,0,1-.257.541,6.766,6.766,0,0,1-.609.96,4.722,4.722,0,0,1-.655.736q-.292.252-.387.352a1.161,1.161,0,0,1-.23.189l-.135.089-.027.014-.027.014-.005.008-.008.005-.008.005L26.7,3.72l-.027.014-.027.014-.005.008-.008.005-.008.005-.005.008-.005.008-.008.005-.008.005-.005.008h.135l.757-.162a13.554,13.554,0,0,0,1.447-.392L29.662,3l.081-.027.041-.014.027-.014.027-.014.027-.014.027-.014.054-.008L30,2.894v.054l-.014.005-.014.008-.005.008-.008.005-.008.005-.005.008L29.941,3,29.932,3l-.008.005-.005.008-.005.008-.008.005-.014.027-.014.027-.008.005-.344.46a3.8,3.8,0,0,1-.365.46q-.027.008-.076.081a7.753,7.753,0,0,1-.573.6,13.615,13.615,0,0,1-1.033.939,1.281,1.281,0,0,0-.514,1.017q-.008.6-.062,1.358t-.2,1.637a19.51,19.51,0,0,1-.46,1.988,18.076,18.076,0,0,1-.757,2.164,16.86,16.86,0,0,1-.933,1.894q-.487.839-.893,1.42t-.825,1.1q-.419.514-1.06,1.158t-.7.7q-.062.06-.53.444t-1,.774a11.577,11.577,0,0,1-.979.641q-.446.257-1.077.587a12.81,12.81,0,0,1-1.358.617q-.73.284-1.542.528a14.085,14.085,0,0,1-1.569.379q-.757.135-1.718.23l-.96.095v.014H8.575V24.36l-.23-.014q-.23-.014-.379-.027T6.844,24.17q-.974-.135-1.528-.271t-1.65-.514a16.055,16.055,0,0,1-1.875-.766q-.776-.384-.974-.487t-.438-.249l-.243-.149L.13,21.728l-.008-.005-.008-.005-.005-.008L.081,21.7l-.027-.014-.005-.008-.008-.005-.008-.005-.005-.008-.005-.008-.008-.005H0v-.054l.027.005.027.008.122.014q.122.014.663.041t1.15,0a12.1,12.1,0,0,0,1.244-.122,14.018,14.018,0,0,0,1.5-.325,11.093,11.093,0,0,0,1.591-.546q.722-.319,1.028-.476a10.009,10.009,0,0,0,.925-.573l.622-.419.005-.008.008-.005.008-.005.005-.008.005-.008.008-.005.008-.005.005-.008.027-.008.027-.005.005-.027.008-.027.008-.005.005-.008-.216-.014L8.4,19.017a4.066,4.066,0,0,1-.636-.122,6.1,6.1,0,0,1-.933-.325,7.2,7.2,0,0,1-.974-.514,4.793,4.793,0,0,1-.684-.5q-.208-.195-.541-.552a5.473,5.473,0,0,1-.573-.739,6.635,6.635,0,0,1-.465-.874l-.225-.492-.014-.041-.014-.041L3.333,14.8l-.005-.027.041.005.041.008.3.041a6.612,6.612,0,0,0,.933.027,7.226,7.226,0,0,0,.879-.054q.243-.041.3-.054l.054-.014.068-.014.068-.014.005-.008.008-.005.008-.005.005-.008-.054-.014-.054-.014-.054-.014-.054-.014-.054-.014q-.054-.014-.189-.054t-.73-.3a5.585,5.585,0,0,1-.947-.5,6.539,6.539,0,0,1-.671-.533,7.655,7.655,0,0,1-.7-.752A5.411,5.411,0,0,1,1.853,11.4a6.5,6.5,0,0,1-.446-1.163,6.28,6.28,0,0,1-.195-1.123l-.049-.568.027.005.027.008.027.014.027.014L1.3,8.6l.027.014.419.189a5.29,5.29,0,0,0,1.041.325q.622.135.744.149l.122.014H3.9L3.89,9.284l-.008-.005-.008-.005-.005-.008-.005-.008-.008-.005-.008-.005-.005-.008-.027-.014-.027-.014L3.782,9.2,3.774,9.2l-.008-.005L3.76,9.184,3.733,9.17l-.027-.014L3.7,9.149l-.233-.173A3.547,3.547,0,0,1,3,8.535q-.243-.271-.487-.568a4.387,4.387,0,0,1-.433-.636,7.706,7.706,0,0,1-.4-.86,6.106,6.106,0,0,1-.317-1.047,5.959,5.959,0,0,1-.122-1.041A6.558,6.558,0,0,1,1.271,3.5a5.746,5.746,0,0,1,.162-.825A6.429,6.429,0,0,1,1.785,1.7l.23-.514.014-.041.014-.041L2.051,1.1,2.056,1.1l.005-.008.008-.005.008.005.005.008.005.008.008.005.008.005.005.008.005.008.008.005.014.027.014.027.008.005.005.008.365.406q.365.406.866.906a5.087,5.087,0,0,0,.555.519.4.4,0,0,1,.135.124,5.522,5.522,0,0,0,.541.479q.46.379,1.2.879T7.48,5.5a16.1,16.1,0,0,0,1.948.879q1.041.392,1.461.514t1.434.311q1.014.189,1.528.243t.7.062l.189.005-.005-.041-.008-.041L14.675,7.1a6.357,6.357,0,0,1-.054-.947,6.208,6.208,0,0,1,.095-1.123A6.65,6.65,0,0,1,15,3.99a5.563,5.563,0,0,1,.371-.847,8.33,8.33,0,0,1,.482-.722,5.833,5.833,0,0,1,.771-.839A5.689,5.689,0,0,1,17.705.812,7.034,7.034,0,0,1,18.828.3a5.231,5.231,0,0,1,.866-.23,3.009,3.009,0,0,0,.352-.062Z" transform="translate(82 379)" fill="#7fbcbe" stroke="#7fbcbe" stroke-width="0.5"/></g></svg>