<svg xmlns="http://www.w3.org/2000/svg" width="447.001" height="388.289" viewBox="0 0 447.001 388.289"><path d="M48.5,171.289c-26.469,0-48.5,21.785-48.5,48.25v121c0,26.469,22.031,47.75,48.5,47.75h351a47.414,47.414,0,0,0,47.5-47.75v-121c0-26.465-21.031-48.25-47.5-48.25H384.848L256.012,50.75A34.994,34.994,0,0,0,259.5,35.477a35.5,35.5,0,1,0-71,.047,34.747,34.747,0,0,0,3.488,15.219L63.152,171.289Zm382.5,169a32,32,0,0,1-32,32H48a32,32,0,0,1-32-32v-121a32,32,0,0,1,32-32H399a32,32,0,0,1,32,32ZM224,16.039a19.5,19.5,0,1,1-19.5,19.5A19.5,19.5,0,0,1,224,16.039ZM202.027,63.27a35.115,35.115,0,0,0,43.945-.031L361.438,171.289H86.559Zm0,0" fill="#323742"/><path d="M96.352,315.4c1.1,3.5,5.7,5.2,10.3,5.2,4.5,0,9.3-1.7,10.1-5.2l5.2-23.7,5.2,23.7c.8,3.5,5.6,5.2,10.1,5.2,4.6,0,9.1-1.7,10.3-5.2l19.9-61a4.325,4.325,0,0,0,.2-1.3c0-3.4-5.6-6.2-10.1-6.2-2.4,0-4.4.8-5,2.9l-15.2,51.3-7.9-33.8c-.6-2.7-4.1-4.1-7.5-4.1s-6.9,1.4-7.5,4.1l-7.9,33.8-15.2-51.3c-.6-2.1-2.6-2.9-5-2.9-4.5,0-10.1,2.8-10.1,6.2a4.452,4.452,0,0,0,.2,1.3Zm0,0" fill="#323742"/><path d="M207.449,320.6c13.8,0,24.551-6.4,24.551-23.6V270.5c0-17.2-10.75-23.6-24.551-23.6S183,253.3,183,270.5V297C183,314.2,193.648,320.6,207.449,320.6ZM198,270.5c0-6.9,3.352-10,8.949-10s9.051,3.1,9.051,10V297c0,6.9-3.449,10-9.051,10S198,303.9,198,297Zm0,0" fill="#323742"/><path d="M259.5,320c3.9,0,7.5-1.6,7.5-4.8v-23.91h6.848l13.7,26.5a5.288,5.288,0,0,0,5,2.855c4.6,0,9.8-4.227,9.8-8.125a3.3,3.3,0,0,0-.5-1.812l-12.2-22.109c7-2.7,12.1-8.906,12.1-20.105,0-16.3-10.9-21.207-24.6-21.207h-20.7A4.061,4.061,0,0,0,252,251.594v63.6c0,3.2,3.6,4.8,7.5,4.8Zm7.5-59.711h10.148c5.6,0,9,2.5,9,9.5s-3.4,9.5-9,9.5H267Zm0,0" fill="#323742"/><path d="M328,320c3.9,0,8-1.6,8-4.8V297.1l4.023-5.4,17.012,26a5.959,5.959,0,0,0,5.359,2.9c4.5,0,9.379-3.9,9.379-7.8a4.972,4.972,0,0,0-.812-2.6l-20.707-31.7,16.4-20.6a5.06,5.06,0,0,0,1-3c0-3.9-5.2-8-9.2-8a4.418,4.418,0,0,0-3.926,2.2L336,275.6v-24c0-3.3-4.1-4.7-8-4.7s-8,1.4-8,4.7v63.6C320,318.4,324.1,320,328,320Zm0,0" fill="#323742"/></svg>